<svg width="17" height="17" viewBox="0 0 17 17" fill="none" xmlns="http://www.w3.org/2000/svg">
<path d="M9.96849 1.21749L11.4643 4.20916C11.6683 4.62561 12.2122 5.02507 12.6712 5.10156L15.3824 5.55201C17.1162 5.84098 17.5241 7.09884 16.2748 8.3397L14.167 10.4475C13.8101 10.8044 13.6146 11.4928 13.7251 11.9858L14.3285 14.595C14.8044 16.6603 13.7081 17.4592 11.8808 16.3798L9.33956 14.8755C8.88061 14.6035 8.12419 14.6035 7.65674 14.8755L5.11553 16.3798C3.29673 17.4592 2.19185 16.6518 2.6678 14.595L3.27123 11.9858C3.38172 11.4928 3.18624 10.8044 2.82928 10.4475L0.721513 8.3397C-0.51935 7.09884 -0.119894 5.84098 1.61391 5.55201L4.32511 5.10156C4.77556 5.02507 5.3195 4.62561 5.52348 4.20916L7.01931 1.21749C7.83522 -0.40583 9.16108 -0.40583 9.96849 1.21749Z" fill="#FBBE21"/>
</svg>
