<svg width="11" height="6" viewBox="0 0 11 6" fill="none" xmlns="http://www.w3.org/2000/svg">
<path fill-rule="evenodd" clip-rule="evenodd" d="M9.69999 5.99999C9.27319 5.99999 8.92679 5.6536 8.92679 5.2268C8.92679 3.1969 7.27525 1.54639 5.24639 1.54639H5.23092C4.26082 1.54639 3.31546 1.93711 2.62989 2.61855C1.94123 3.30412 1.54639 4.25567 1.54639 5.2268C1.54639 5.6536 1.2 5.99999 0.773195 5.99999C0.346391 5.99999 0 5.6536 0 5.2268C0 3.84639 0.560824 2.4969 1.53814 1.52268C2.51237 0.554638 3.85567 0 5.22783 0H5.24948C8.12886 0 10.4732 2.34433 10.4732 5.2268C10.4732 5.6536 10.1268 5.99999 9.69999 5.99999Z" fill="#A2A2A2"/>
</svg>
